<?xml version="1.0" encoding="UTF-8"?>
<svg id="Camada_1" xmlns="http://www.w3.org/2000/svg" version="1.1" width="114" height="32" viewBox="0 0 114 32" preserveAspectRatio="xMidYMid meet">
  <!-- Generator: Adobe Illustrator 30.0.0, SVG Export Plug-In . SVG Version: 2.1.1 Build 123)  -->
  <defs>
    <style>
      .st0, .st1 {
        fill: #ffffff;
      }

      .st1 {
        font-family: LEMONMILK-Regular, 'LEMON MILK';
        font-size: 11px;
      }
    </style>
  </defs>
  <g>
    <path class="st0" d="M14.27,17.07c.51-.19.94-.35,1.37-.51.45-.17.59-.41.38-.92-.94-2.31-1.83-4.63-2.74-6.95-.36-.92-.33-1,.61-1.36.19-.07.4-.12.55-.17,1.02,2.53,2.02,5.03,3.03,7.52.09,0,.18-.01.27-.02,1.67-3.98,3.65-7.88,3.58-12.51.69-.47,1.37-.27,2.05.63.7-.26,1.33-.62,2-.7.43-.05.92.3,1.4.57-1.25.59-1.48,1.67-1.51,2.79-.1,3.14-.17,6.29-.21,9.43-.03,2.2-.01,4.39.02,6.59,0,.48-.14.81-.51,1.07-.51.36-1.02.7-1.67,1.15V6.95s-.08-.02-.12-.02c-.08.16-.16.32-.23.48-1.08,2.75-2.15,5.51-3.25,8.25-.21.52-.04.74.4.91.43.16.86.32,1.29.48-.45.94-1.1,1.32-2.17,1.26.22,1.14-.58,1.86-1.14,2.78-.56-.89-1.41-1.57-1.15-2.79-1.06.18-1.7-.39-2.26-1.23Z"/>
    <path class="st0" d="M20.91,4.73c-.16.61-.28,1.07-.4,1.52-7.09-.4-10.15,1.59-12.49,8.09-.92-.48-1.38-.29-1.57.66-.52-.09-.94.03-1.05.61-.08.46.3.72,1.06.78.21.91.68,1.09,1.41.67.63,1.29,1.27,2.59,1.89,3.89.08.18.09.41.09.61.01.76,0,1.52,0,2.43-1.6-1.06-2.65-2.42-3.65-3.9-.6.27-1.15.2-1.57-.34-.37-.47-.51-.97-.12-1.5-.8-.88-1.58-1.73-2.37-2.59.76-.83,1.54-1.68,2.35-2.56-.33-.5-.24-.98.16-1.42.42-.45.91-.68,1.5-.45,3.51-5.29,8.48-7.17,14.75-6.51Z"/>
    <path class="st0" d="M13.84,27.23c.37-.43.8-.64,1.18-.37.36.26.76.67.85,1.07.3,1.37-.95,2.64-2.45,2.48-.67-.07-1.31-.4-2.06-.64-1.21.78-2.25.58-2.91-.74,1.18-.29,1.49-1.23,1.56-2.26.11-1.58.2-3.16.22-4.74.03-3.76.01-7.52.03-11.28,0-.23.07-.52.22-.68.57-.61,1.18-1.18,1.77-1.77.06.03.12.06.18.09,0,.29,0,.57,0,.86,0,5.26,0,10.52.02,15.78,0,.97.13,1.94.3,2.89.05.3.41.7.69.76.27.05.75-.19.91-.45.26-.42.02-.8-.51-.99Z"/>
    <path class="st0" d="M31.15,18.78c-.3.81-.61,1.61-.95,2.5.6.41,1.14,1.02.68,2.03-1.26-.41-2.38.05-3.49.52-.99.42-1.96.89-2.92,1.38-3.56,1.81-7.23,1.98-11,.77-.5-.16-.69-.39-.63-.89.04-.37,0-.75,0-1.18.16.06.27.08.38.14,2.94,1.51,5.96,1.68,8.98.36,1.12-.49,2.15-1.26,3.1-2.05,1.35-1.13,1.46-2,.71-3.57.65-.53,1.51-.38,2.22.31.95-.2,1.81-.38,2.67-.56.08.09.16.17.25.26Z"/>
    <path class="st0" d="M30.87,7.92c.37,1.02,0,1.7-.67,2.13.33.89.63,1.71.94,2.54-.07.08-.14.16-.21.24-.86-.18-1.72-.35-2.7-.56-.84.74-1.51.88-2.27.33.83-1.23.56-2.36-.37-3.43-.1-.11-.13-.31-.13-.47.01-.65.05-1.3.09-2.03,1.72.68,3.23,2.13,5.32,1.23Z"/>
    <path class="st0" d="M14.01,2.13v2.55c-1.29.6-2.53,1.18-3.81,1.78-.29-1.31.04-2.94-1.59-3.69.87-.99,1.97-.94,3.26.15.53-.81,1.21-1.27,2.14-.8Z"/>
  </g>
  <text class="st1" transform="translate(50.12 13.73)"><tspan x="0" y="0">markus </tspan><tspan x="-14.02" y="13.2">corazzione</tspan></text>
</svg>